<svg width="24" height="30" viewBox="0 0 24 30" fill="none" xmlns="http://www.w3.org/2000/svg">
<path d="M23.8354 21.384C23.7574 21.6043 23.6818 21.8408 23.5948 22.0733C22.8747 24.023 21.7816 25.7542 20.4552 27.3407C20.1992 27.6495 19.9009 27.9291 19.5928 28.1884C18.9841 28.7037 18.2835 29.015 17.4732 29.0434C16.8644 29.0629 16.2801 28.9524 15.7168 28.7232C15.3088 28.5566 14.9073 28.3704 14.4937 28.2201C13.151 27.7324 11.8156 27.7966 10.4949 28.3184C10.0187 28.507 9.54888 28.7151 9.06367 28.8784C8.50125 29.067 7.91769 29.1434 7.32357 29.0312C6.80504 28.9345 6.35152 28.6931 5.93052 28.3818C5.40792 27.995 4.96904 27.5236 4.5586 27.0245C2.61531 24.6546 1.31085 21.9749 0.680968 18.9734C0.40951 17.6828 0.27947 16.3816 0.359119 15.0625C0.452585 13.4809 0.819948 11.9748 1.66521 10.6176C2.72585 8.91159 4.22212 7.79406 6.1906 7.33323C7.37478 7.05446 8.52644 7.16824 9.65535 7.60306C10.2495 7.83063 10.8452 8.05577 11.4418 8.27927C11.9912 8.48571 12.5382 8.48571 13.0884 8.27521C13.6972 8.04276 14.3067 7.81113 14.9179 7.58437C15.5445 7.35599 16.1817 7.16906 16.8466 7.11623C17.8414 7.03576 18.8118 7.16499 19.7562 7.48115C21.0948 7.92898 22.1839 8.72141 23.0064 9.87551C23.0283 9.90721 23.0527 9.94216 23.069 9.96735C20.9948 11.4132 19.8139 13.3232 19.9854 15.9094C20.1585 18.4972 21.5516 20.2478 23.8354 21.384ZM12.2009 6.796C12.8129 6.81226 13.4013 6.69441 13.9678 6.46928C16.5515 5.44359 17.9023 2.71031 17.8617 0.619917C17.8584 0.451678 17.8471 0.283439 17.8397 0.0883789C17.574 0.128204 17.3318 0.146897 17.0993 0.205415C15.2129 0.66787 13.7614 1.72038 12.8072 3.42472C12.2488 4.42277 11.9384 5.4826 12.0335 6.64077C12.04 6.76349 12.0847 6.79438 12.2009 6.796Z" fill="white"/>
</svg>
