<svg width="24" height="25" viewBox="0 0 24 25" fill="none" xmlns="http://www.w3.org/2000/svg">
<path d="M12.625 8.11523V13.084L15.9375 14.7402" stroke="white" stroke-width="1.5" stroke-linecap="round" stroke-linejoin="round"/>
<path d="M1.625 4.49023V10.4902H7.625" stroke="white" stroke-width="1.5" stroke-linecap="round" stroke-linejoin="round"/>
<path d="M4.135 15.4907C4.78339 17.331 6.01234 18.9109 7.63666 19.992C9.26098 21.0732 11.1927 21.5973 13.1407 21.4851C15.0887 21.373 16.9476 20.6308 18.4371 19.3704C19.9267 18.11 20.9663 16.3996 21.3992 14.497C21.8322 12.5944 21.6351 10.6026 20.8376 8.82177C20.0402 7.04091 18.6855 5.56747 16.9778 4.62344C15.2701 3.67941 13.3019 3.31593 11.3697 3.58779C9.43745 3.85964 7.64591 4.75209 6.265 6.13067L1.625 10.4907" stroke="white" stroke-width="1.5" stroke-linecap="round" stroke-linejoin="round"/>
</svg>
