<svg fill="none" height="36" viewBox="0 0 36 36" width="36" xmlns="http://www.w3.org/2000/svg">
    <path
        d="M8.80762 9C6.45508 11.3033 5 14.4853 5 18C5 21.5147 6.45507 24.6967 8.8076 27M27.1924 27C29.5449 24.6967 31 21.5147 31 18C31 14.4853 29.5449 11.3033 27.1924 9"
        stroke="#8E8F99" stroke-linecap="round" stroke-width="1.5" />
    <circle cx="18" cy="18" fill="#8E8F99" r="2" stroke="#8E8F99" stroke-width="1.5" />
    <path
        d="M11.636 11C10.0074 12.7915 9 15.2663 9 18C9 20.7337 10.0074 23.2085 11.636 25M24.364 25C25.9926 23.2085 27 20.7337 27 18C27 15.2663 25.9926 12.7915 24.364 11"
        stroke="#8E8F99" stroke-linecap="round" stroke-width="1.5" />
    <path
        d="M14.4645 14C13.5596 15.0237 13 16.4379 13 18C13 19.5621 13.5596 20.9763 14.4645 22M21.5355 22C22.4404 20.9763 23 19.5621 23 18C23 16.4379 22.4404 15.0237 21.5355 14"
        stroke="#8E8F99" stroke-linecap="round" stroke-width="1.5" />
</svg>
