<svg width="21" height="17" viewBox="0 0 21 17" fill="none" xmlns="http://www.w3.org/2000/svg">
<path d="M19.6654 14.3333C19.6654 14.7754 19.4898 15.1993 19.1772 15.5118C18.8646 15.8244 18.4407 16 17.9987 16H2.9987C2.55667 16 2.13275 15.8244 1.82019 15.5118C1.50763 15.1993 1.33203 14.7754 1.33203 14.3333V5.16667C1.33203 4.72464 1.50763 4.30072 1.82019 3.98816C2.13275 3.67559 2.55667 3.5 2.9987 3.5H6.33203L7.9987 1H12.9987L14.6654 3.5H17.9987C18.4407 3.5 18.8646 3.67559 19.1772 3.98816C19.4898 4.30072 19.6654 4.72464 19.6654 5.16667V14.3333Z" stroke="white" stroke-width="1.5" stroke-linecap="round" stroke-linejoin="round"/>
<path d="M10.5013 12.6667C12.3423 12.6667 13.8346 11.1743 13.8346 9.33333C13.8346 7.49238 12.3423 6 10.5013 6C8.66035 6 7.16797 7.49238 7.16797 9.33333C7.16797 11.1743 8.66035 12.6667 10.5013 12.6667Z" stroke="white" stroke-width="1.5" stroke-linecap="round" stroke-linejoin="round"/>
</svg>
