<svg width="31" height="31" viewBox="0 0 31 31" fill="none" xmlns="http://www.w3.org/2000/svg">
<path d="M15.164 4.022V1M15.164 4.022C21.248 4.022 26.18 8.95399 26.18 15.038C26.18 21.121 21.248 26.054 15.164 26.054C9.081 26.054 4.14799 21.122 4.14799 15.038C4.14799 8.95399 9.08 4.022 15.164 4.022ZM15.164 29.076V26.052V29.076ZM22.952 7.24899L25.09 5.11099L22.952 7.24899ZM5.237 24.964L7.375 22.826L5.237 24.964ZM26.178 15.038H29.202H26.178ZM1.125 15.038H4.149H1.125ZM22.952 22.826L25.09 24.964L22.952 22.826ZM5.237 5.11099L7.375 7.25L5.237 5.11099Z" stroke="white" stroke-width="2.0001" stroke-miterlimit="22.9256" stroke-linecap="round" stroke-linejoin="round"/>
</svg>
