<svg width="26" height="22" viewBox="0 0 26 22" fill="none" xmlns="http://www.w3.org/2000/svg">
<path d="M18.789 15.5C18.789 15.5 21.404 13.101 22.1673 12.3005C22.9306 11.5 24.218 11.4571 24.7208 12C25.2237 12.5429 24.9928 13.7329 24.46 14.3081C23.9273 14.8833 18.9162 21 18.9162 21H10.613L6.02869 18.2727H2C1.44772 18.2727 1 17.825 1 17.2727V13.0859C1 12.5336 1.44772 12.0859 2 12.0859H4.13294C4.81123 11.7239 5.06505 11 6.91748 11C9.23302 11 11.8526 13.803 13.0689 14.3081C14.2851 14.8131 16.7644 14.7894 17.6999 14.7389C18.4718 14.6972 18.9025 15.5 18.9025 16C18.9025 16.5 18.7478 17.5455 17.6999 17.6667C16.7265 17.7793 13.9687 17.857 12.4381 17.8877C12.2244 17.892 12.0159 17.8271 11.8417 17.7033L8.27406 15.1667" stroke="#66CCCC" stroke-width="1.5" stroke-linecap="round" stroke-linejoin="round"/>
<path d="M20.9039 1.88407C20.5979 1.6038 20.2346 1.38146 19.8348 1.22977C19.435 1.07808 19.0064 1 18.5736 1C18.1408 1 17.7122 1.07808 17.3124 1.22977C16.9126 1.38146 16.5493 1.6038 16.2433 1.88407L15.6084 2.46547L14.9734 1.88407C14.3554 1.3182 13.5171 1.00029 12.6431 1.00029C11.7691 1.00029 10.9309 1.3182 10.3129 1.88407C9.69486 2.44995 9.34766 3.21744 9.34766 4.0177C9.34766 4.81797 9.69486 5.58546 10.3129 6.15134L10.9479 6.73274L15.6084 11L20.2689 6.73274L20.9039 6.15134C21.21 5.87119 21.4528 5.53857 21.6185 5.17247C21.7841 4.80638 21.8694 4.41398 21.8694 4.0177C21.8694 3.62143 21.7841 3.22903 21.6185 2.86293C21.4528 2.49684 21.21 2.16422 20.9039 1.88407V1.88407Z" stroke="#66CCCC" stroke-width="1.5" stroke-linecap="round" stroke-linejoin="round"/>
</svg>
