<svg width="20" height="20" viewBox="0 0 20 20" fill="none" xmlns="http://www.w3.org/2000/svg">
<path d="M14.6345 13.3793L19.1551 17.8912C19.4956 18.2311 19.4956 18.7829 19.1551 19.1228C18.8146 19.4628 18.2619 19.4628 17.9215 19.1228L13.3995 14.6088C11.8954 15.8246 10.0619 16.4345 8.23052 16.4345C6.12452 16.4345 4.01783 15.6314 2.41111 14.0273C0.804397 12.4232 0 10.3199 0 8.21725C0 6.11465 0.804397 4.01135 2.41111 2.40723C4.01783 0.8031 6.12452 0 8.23052 0C10.3129 0 12.3974 0.78649 13.9979 2.35877L14.0506 2.40654C15.6567 4.01067 16.4611 6.11396 16.4611 8.21657C16.4611 10.0471 15.8522 11.8783 14.6345 13.3793ZM3.64475 3.63889C2.37921 4.90239 1.7454 6.55982 1.7454 8.21725C1.7454 9.87469 2.37921 11.5321 3.64475 12.7956C4.91029 14.0591 6.57041 14.6919 8.23052 14.6919C9.87053 14.6919 11.5098 14.0751 12.7698 12.8448L12.8163 12.7949L12.8315 12.7797L12.8482 12.7645C14.0929 11.5058 14.7143 9.86085 14.7143 8.21795C14.7143 6.56052 14.0811 4.90307 12.8163 3.63957L12.7733 3.59457C11.514 2.36153 9.87122 1.74328 8.22914 1.74328C6.57041 1.74259 4.91029 2.37539 3.64475 3.63889Z" fill="#66CCCC"/>
</svg>
