<svg width="24" height="18" viewBox="0 0 24 18" fill="none" xmlns="http://www.w3.org/2000/svg">
<path fill-rule="evenodd" clip-rule="evenodd" d="M4.48731 13.4839L4.65223 13.6471L4.72889 13.7196L6.967 15.9568C7.06425 16.0565 7.16598 16.1574 7.31175 16.2996C7.38863 16.3786 7.47444 16.4626 7.60318 16.5858L7.64436 16.6291C7.69784 16.6857 7.71136 16.6998 7.73598 16.723C8.03217 17.019 8.3888 17.2781 8.779 17.4775C9.16996 17.6761 9.58745 17.8134 10.0184 17.8854C10.4141 17.9512 10.8138 17.9867 11.2145 17.9917C11.3046 17.9943 11.3504 17.9955 11.4072 17.9968C11.5258 17.9996 11.6262 18.001 11.7238 18.001H17.6154H18.2084C18.3563 18.001 18.4726 17.9986 18.7275 17.9915C19.1182 17.9867 19.5186 17.9512 19.9146 17.8855C20.3457 17.8135 20.7626 17.676 21.1514 17.4777C21.5421 17.2794 21.9 17.0196 22.2106 16.7087C22.5192 16.3976 22.7773 16.0432 22.9776 15.656C23.1762 15.2597 23.3125 14.8452 23.3865 14.4174C23.4518 14.0166 23.4866 13.6183 23.4916 13.219C23.4971 13.0389 23.5 12.8702 23.5 12.7071V5.29482L23.4984 5.16198C23.4961 4.96944 23.4947 4.88327 23.4914 4.77117C23.4866 4.38369 23.4518 3.98534 23.3876 3.59121C23.3125 3.1568 23.1762 2.74221 22.9818 2.35405C22.7792 1.95868 22.5199 1.60265 22.2103 1.29305C21.9 0.98234 21.5421 0.722584 21.1503 0.523658C20.7626 0.325955 20.3457 0.18847 19.9152 0.116585C19.5204 0.0484586 19.1169 0.0126748 18.7125 0.0102201C18.4726 0.00339297 18.3563 0.000976562 18.2084 0.000976562H11.722C11.6243 0.000976562 11.524 0.00239135 11.4053 0.00515139C11.3486 0.00647059 11.3027 0.00768841 11.2021 0.0104713C10.8133 0.012698 10.4105 0.048494 10.0127 0.117244C9.5856 0.188535 9.16811 0.325841 8.77855 0.523758C8.38695 0.72383 8.03032 0.982962 7.72017 1.29248C7.70923 1.30242 7.69063 1.32184 7.60345 1.41503C7.49273 1.51947 7.39354 1.6164 7.29796 1.7143C7.15052 1.85786 7.05905 1.94849 6.95816 2.05229L4.65869 4.34771C4.62973 4.3755 4.60051 4.40405 4.56649 4.43764L4.48171 4.52172C4.39125 4.60962 4.33366 4.66691 4.26966 4.73404L2.21691 6.78512C2.20617 6.79569 2.20037 6.80139 2.19459 6.80712C2.1878 6.81385 2.18104 6.82062 2.16634 6.83532L2.11425 6.88793C2.06505 6.93786 2.04443 6.9587 2.02096 6.98201C1.93674 7.06622 1.89356 7.11041 1.84508 7.16398C1.67401 7.33104 1.51331 7.5084 1.36387 7.69506C1.21958 7.84795 1.10293 8.02487 1.01924 8.21795L0.995545 8.2808C0.844543 8.74905 0.844543 9.25291 0.995545 9.72115L1.02112 9.7883C1.10597 9.98047 1.22197 10.1572 1.36439 10.3115C1.52017 10.5005 1.68534 10.6816 1.85928 10.8541L1.93405 10.9303C1.97663 10.9736 1.99439 10.9915 2.02106 11.0182C2.04761 11.0446 2.06753 11.0647 2.11621 11.114C2.16653 11.165 2.19046 11.1892 2.21988 11.2184L4.28273 13.284L4.48731 13.4839ZM17.6154 16.6164H18.2084C18.3392 16.6164 18.4469 16.6141 18.6997 16.6072C19.0308 16.6031 19.3611 16.5738 19.6872 16.5197C19.978 16.4711 20.2597 16.3782 20.5235 16.2437C20.785 16.1109 21.0237 15.9376 21.2293 15.7318C21.4373 15.5222 21.6122 15.2821 21.7437 15.0279C21.8774 14.7609 21.9712 14.4757 22.021 14.1881C22.0741 13.8618 22.1029 13.532 22.1074 13.1896C22.1127 13.0106 22.1154 12.8552 22.1154 12.7071L22.1154 5.30444L22.1139 5.17829C22.1117 4.994 22.1104 4.91342 22.1071 4.80051C22.1029 4.46993 22.0741 4.14012 22.0221 3.82047C21.9712 3.52623 21.8774 3.24105 21.7467 2.97983C21.6127 2.71849 21.4388 2.47967 21.2309 2.27177C21.0237 2.06432 20.785 1.89102 20.5224 1.75771C20.2597 1.62374 19.978 1.53086 19.6835 1.48167C19.36 1.42585 19.0324 1.3968 18.6891 1.39456C18.4469 1.38783 18.3392 1.38559 18.2084 1.38559H11.722C11.6364 1.38559 11.5463 1.38686 11.4375 1.38939C11.3877 1.39055 11.3468 1.39162 11.2509 1.39414L11.2255 1.39481C10.898 1.39682 10.5712 1.42586 10.2446 1.4823C9.95256 1.53105 9.66967 1.62409 9.40711 1.75748C9.14542 1.89118 8.90625 2.06497 8.68428 2.2861C8.61057 2.36498 8.58127 2.39587 8.55598 2.41994C8.45586 2.51439 8.36994 2.59834 8.27682 2.69344C8.12568 2.84089 8.04107 2.92472 7.94423 3.02426L5.60895 5.36048C5.57111 5.3916 5.55606 5.40638 5.53946 5.42277L5.48494 5.47682C5.36815 5.591 5.32066 5.63823 5.26012 5.70145L3.1906 7.76952C3.1804 7.77956 3.17513 7.78475 3.16987 7.78996C3.16426 7.79553 3.15867 7.80112 3.14711 7.81269L3.10009 7.86018C3.0504 7.91063 3.02509 7.93621 2.99828 7.96282C2.92439 8.03671 2.89403 8.06796 2.861 8.10498C2.68388 8.27906 2.55097 8.42599 2.42821 8.58121L2.37766 8.63834C2.34758 8.66879 2.32229 8.70354 2.3026 8.7414C2.25515 8.91068 2.25501 9.08974 2.30218 9.25907C2.3247 9.30236 2.35321 9.34232 2.38691 9.37777C2.55073 9.57486 2.68868 9.72661 2.84038 9.87711L2.92135 9.95957C2.96119 10 2.97662 10.0156 2.99838 10.0374C3.0278 10.0666 3.05174 10.0907 3.10205 10.1418C3.15074 10.1911 3.17065 10.2112 3.19753 10.2379L5.25634 12.2996L5.45788 12.4964L5.59245 12.6295C5.61657 12.6494 5.63947 12.6708 5.66103 12.6936L7.95188 14.9836C8.04563 15.0796 8.1403 15.1735 8.29061 15.3205C8.366 15.3977 8.44217 15.4722 8.54752 15.5733C8.57664 15.5998 8.58281 15.6062 8.65067 15.678C8.67351 15.7022 8.69098 15.7204 8.70009 15.7294C8.90809 15.937 9.14727 16.1108 9.40755 16.2438C9.67152 16.3779 9.9544 16.4709 10.246 16.5196C10.5719 16.5738 10.9014 16.6031 11.2422 16.6074C11.3419 16.6101 11.3853 16.6113 11.4393 16.6126C11.5481 16.6151 11.6382 16.6164 11.7238 16.6164H17.6154Z" fill="white"/>
<path d="M17.9967 5.45713C17.7638 5.2241 17.3862 5.2239 17.153 5.45669C17.1287 5.48126 17.1069 5.50742 17.0876 5.53482L14.4687 8.15412L11.8676 5.55722C11.8455 5.52328 11.8196 5.49109 11.7899 5.46126C11.6786 5.34828 11.5266 5.28467 11.3681 5.28467C11.2095 5.28467 11.0575 5.34828 10.9462 5.46126C10.7156 5.6928 10.7149 6.06663 10.9437 6.29905L10.9323 6.31044L13.6256 8.99733L11.0351 11.5883C10.9996 11.611 10.966 11.6379 10.935 11.6688C10.7033 11.9027 10.7033 12.2796 10.935 12.5135C11.1667 12.7448 11.5411 12.746 11.7744 12.5174L11.7843 12.5273L14.4708 9.84049L17.1594 12.5227L17.1662 12.516C17.3988 12.747 17.7745 12.7466 18.0066 12.5149C18.239 12.2827 18.2395 11.9062 18.0077 11.6734C17.981 11.6463 17.952 11.6221 17.9211 11.6009L15.3136 8.99758L18.005 6.3058L17.9984 6.29922C18.2297 6.06607 18.2291 5.68961 17.9967 5.45713Z" fill="white"/>
</svg>
