<svg width="25" height="24" viewBox="0 0 25 24" fill="none" xmlns="http://www.w3.org/2000/svg">
<path d="M21.2981 4.60999C20.7874 4.099 20.1809 3.69364 19.5135 3.41708C18.846 3.14052 18.1306 2.99817 17.4081 2.99817C16.6856 2.99817 15.9702 3.14052 15.3028 3.41708C14.6353 3.69364 14.0289 4.099 13.5181 4.60999L12.4581 5.66999L11.3981 4.60999C10.3664 3.5783 8.96716 2.9987 7.50813 2.9987C6.04909 2.9987 4.64982 3.5783 3.61813 4.60999C2.58643 5.64169 2.00684 7.04096 2.00684 8.49999C2.00684 9.95903 2.58643 11.3583 3.61813 12.39L4.67813 13.45L12.4581 21.23L20.2381 13.45L21.2981 12.39C21.8091 11.8792 22.2145 11.2728 22.491 10.6053C22.7676 9.93789 22.91 9.22248 22.91 8.49999C22.91 7.77751 22.7676 7.0621 22.491 6.39464C22.2145 5.72718 21.8091 5.12075 21.2981 4.60999V4.60999Z" stroke="white" stroke-width="2" stroke-linecap="round" stroke-linejoin="round"/>
</svg>
