<svg width="28" height="27" viewBox="0 0 28 27" fill="none" xmlns="http://www.w3.org/2000/svg">
<path d="M14.2639 26.306C21.9991 26.306 27.1375 20.9838 27.1375 13.4717C27.1375 12.6116 27.0464 11.9476 26.9195 11.2854H14.2656V15.8017H21.874C21.563 17.72 19.5702 21.4655 14.2656 21.4655C9.69561 21.4655 5.9638 17.7551 5.9638 13.1669C5.9638 8.57874 9.69382 4.86651 14.2656 4.86651C16.8804 4.86651 18.6176 5.95968 19.606 6.89168L23.2449 3.46852C20.9017 1.31896 17.8848 0.027832 14.2639 0.027832C6.85743 0.027832 0.859375 5.90713 0.859375 13.1669C0.859375 20.4267 6.85743 26.306 14.2639 26.306Z" fill="white"/>
</svg>
