<svg width="31" height="31" viewBox="0 0 31 31" fill="none" xmlns="http://www.w3.org/2000/svg">
<path fill-rule="evenodd" clip-rule="evenodd" d="M5.64623 5.44922H19.4985C21.4155 5.44922 22.9839 7.09805 22.9839 9.11346V12.3131L28.4108 7.69599V23.2028L22.9839 18.5857V21.785C22.9839 23.8004 21.4155 25.4492 19.4985 25.4492H5.64623C3.72915 25.4492 2.16077 23.8004 2.16077 21.785V9.11346C2.16077 7.09805 3.72915 5.44922 5.64623 5.44922ZM12.5722 11.903C10.7094 11.903 9.19916 13.4907 9.19916 15.4491C9.19916 17.4074 10.7094 18.9951 12.5722 18.9951C14.435 18.9951 15.9452 17.4074 15.9452 15.4491C15.9452 13.4907 14.4353 11.903 12.5722 11.903Z" stroke="white" stroke-width="2" stroke-linejoin="round"/>
</svg>
