<svg fill="none" height="20" viewBox="0 0 18 20" width="18" xmlns="http://www.w3.org/2000/svg">
    <path
        d="M8.74656 1.97121L1.74225 7.50126V16.8946C1.74225 17.0975 1.82603 17.2831 1.95968 17.4167C2.09402 17.551 2.2796 17.6348 2.4825 17.6348H15.0092C15.2121 17.6348 15.3984 17.551 15.5321 17.4167C15.6657 17.2831 15.7495 17.0975 15.7495 16.8946V7.50126L8.74656 1.97121ZM0.40232 6.35037L8.20921 0.186727C8.52982 -0.0674088 8.97646 -0.0570217 9.28461 0.186727L17.1607 6.40439C17.3768 6.57543 17.4897 6.82819 17.4897 7.0844H17.4945V16.8946C17.4945 17.5774 17.2155 18.1992 16.7653 18.6486C16.3159 19.098 15.6941 19.3778 15.0106 19.3778H2.48388C1.80042 19.3778 1.17858 19.0987 0.729165 18.6486C0.279753 18.1992 0 17.5774 0 16.8946V7.0844C0 6.77625 0.159263 6.50479 0.40232 6.35037Z"
        fill="#8E8F99" />
</svg>
