<svg width="23" height="18" viewBox="0 0 23 18" fill="none" xmlns="http://www.w3.org/2000/svg">
<path fill-rule="evenodd" clip-rule="evenodd" d="M3.78837 1H14.8702C16.4038 1 17.6585 2.31907 17.6585 3.9314V6.4911L22 2.79742V15.2028L17.6585 11.5091V14.0686C17.6585 15.6809 16.4038 17 14.8702 17H3.78837C2.2547 17 1 15.6809 1 14.0686V3.9314C1 2.31907 2.2547 1 3.78837 1ZM9.32914 6.16304C7.83889 6.16304 6.63072 7.43319 6.63072 8.99988C6.63072 10.5666 7.83889 11.8367 9.32914 11.8367C10.8194 11.8367 12.0276 10.5666 12.0276 8.99988C12.0276 7.43319 10.8196 6.16304 9.32914 6.16304Z" stroke="#8E8F99" stroke-width="1.5" stroke-linejoin="round"/>
</svg>
