<svg width="24" height="25" viewBox="0 0 24 25" fill="none" xmlns="http://www.w3.org/2000/svg">
<path d="M19 11.3848H5C3.89543 11.3848 3 12.2802 3 13.3848V20.3848C3 21.4893 3.89543 22.3848 5 22.3848H19C20.1046 22.3848 21 21.4893 21 20.3848V13.3848C21 12.2802 20.1046 11.3848 19 11.3848Z" stroke="white" stroke-width="1.5" stroke-linecap="round" stroke-linejoin="round"/>
<path d="M7 11.3848V7.38477C7 6.05868 7.52678 4.78691 8.46447 3.84923C9.40215 2.91155 10.6739 2.38477 12 2.38477C13.3261 2.38477 14.5979 2.91155 15.5355 3.84923C16.4732 4.78691 17 6.05868 17 7.38477V11.3848" stroke="white" stroke-width="1.5" stroke-linecap="round" stroke-linejoin="round"/>
</svg>
