<svg width="24" height="24" viewBox="0 0 24 24" fill="none" xmlns="http://www.w3.org/2000/svg">
<path d="M17.884 14.5775C18.0503 14.1982 17.8777 13.7558 17.4984 13.5894C17.119 13.423 16.6767 13.5957 16.5103 13.975L17.884 14.5775ZM7.48959 13.9751C7.32324 13.5957 6.88087 13.423 6.50153 13.5894C6.12219 13.7558 5.94952 14.1981 6.11588 14.5775L7.48959 13.9751ZM9.40372 9.98701C9.40372 10.3911 9.07612 10.7187 8.67201 10.7187V12.2187C9.90455 12.2187 10.9037 11.2195 10.9037 9.98701H9.40372ZM8.67201 10.7187C8.26792 10.7187 7.94032 10.3911 7.94032 9.98701H6.44032C6.44032 11.2195 7.43948 12.2187 8.67201 12.2187V10.7187ZM7.94032 9.98701C7.94032 9.5829 8.26791 9.25532 8.67201 9.25532V7.75532C7.43948 7.75532 6.44032 8.75448 6.44032 9.98701H7.94032ZM8.67201 9.25532C9.07612 9.25532 9.40372 9.58291 9.40372 9.98701H10.9037C10.9037 8.75447 9.90454 7.75532 8.67201 7.75532V9.25532ZM16.0231 9.98701C16.0231 10.3911 15.6955 10.7187 15.2914 10.7187V12.2187C16.5239 12.2187 17.5231 11.2195 17.5231 9.98701H16.0231ZM15.2914 10.7187C14.8873 10.7187 14.5597 10.3911 14.5597 9.98701H13.0597C13.0597 11.2195 14.0588 12.2187 15.2914 12.2187V10.7187ZM14.5597 9.98701C14.5597 9.5829 14.8873 9.25532 15.2914 9.25532V7.75532C14.0588 7.75532 13.0597 8.75448 13.0597 9.98701H14.5597ZM15.2914 9.25532C15.6955 9.25532 16.0231 9.5829 16.0231 9.98701H17.5231C17.5231 8.75448 16.5239 7.75532 15.2914 7.75532V9.25532ZM21.25 12C21.25 17.1086 17.1086 21.25 12 21.25V22.75C17.9371 22.75 22.75 17.9371 22.75 12H21.25ZM12 21.25C6.89136 21.25 2.75 17.1086 2.75 12H1.25C1.25 17.9371 6.06294 22.75 12 22.75V21.25ZM2.75 12C2.75 6.89136 6.89136 2.75 12 2.75V1.25C6.06294 1.25 1.25 6.06294 1.25 12H2.75ZM12 2.75C17.1086 2.75 21.25 6.89136 21.25 12H22.75C22.75 6.06294 17.9371 1.25 12 1.25V2.75ZM16.5103 13.975C15.7484 15.712 14.015 16.923 12.0001 16.923V18.423C14.632 18.423 16.8917 16.8398 17.884 14.5775L16.5103 13.975ZM12.0001 16.923C9.98477 16.923 8.2514 15.7122 7.48959 13.9751L6.11588 14.5775C7.10813 16.8402 9.36792 18.423 12.0001 18.423V16.923Z" fill="white"/>
</svg>
