<svg fill="none" height="20" viewBox="0 0 18 20" width="18" xmlns="http://www.w3.org/2000/svg">
    <path
        d="M10.9793 2.65976C10.4122 2.09347 9.62811 1.74248 8.76153 1.74248C7.89564 1.74248 7.11154 2.09347 6.54445 2.65976C5.97805 3.22605 5.62657 4.00972 5.62657 4.87439C5.62657 5.73905 5.97805 6.52203 6.54445 7.08832C7.11154 7.65461 7.89564 8.00559 8.76153 8.00559C9.62811 8.00559 10.4122 7.6553 10.9793 7.08832C11.5457 6.52203 11.8972 5.73905 11.8972 4.87439C11.8972 4.00903 11.5457 3.22605 10.9793 2.65976ZM1.74496 18.5062C1.74496 18.9873 1.35464 19.3778 0.872816 19.3778C0.390995 19.3778 0 18.988 0 18.5062V16.1697C0 14.8571 0.537274 13.663 1.40317 12.7983C2.26837 11.935 3.46495 11.3978 4.77939 11.3978H12.743C14.0539 11.3978 15.2491 11.935 16.115 12.799L16.1164 12.8018L16.1192 12.8031L16.1206 12.8052C16.9851 13.6699 17.5224 14.862 17.5224 16.1697V18.5062C17.5224 18.9873 17.132 19.3778 16.6495 19.3778C16.167 19.3778 15.7767 18.988 15.7767 18.5062V16.1697C15.7767 15.3348 15.437 14.5775 14.8886 14.0306L14.8852 14.0271C14.3375 13.4795 13.5777 13.1396 12.7423 13.1396H4.77869C3.94538 13.1396 3.18556 13.4809 2.6358 14.0299C2.08534 14.5795 1.74357 15.3369 1.74357 16.1697V18.5062H1.74496ZM8.76153 0C10.1085 0 11.3294 0.546211 12.2126 1.42749C13.0958 2.30946 13.6428 3.52858 13.6428 4.87369C13.6428 6.2188 13.0965 7.43792 12.2126 8.3192C11.3301 9.20117 10.1092 9.74739 8.76153 9.74739C7.4152 9.74739 6.19435 9.20117 5.31043 8.3192C4.4279 7.43792 3.88022 6.2188 3.88022 4.87369C3.88022 3.52996 4.4272 2.30946 5.31043 1.42749C6.19435 0.546211 7.41451 0 8.76153 0Z"
        fill="#8E8F99" />
</svg>
