<svg fill="none" height="31" viewBox="0 0 33 31" width="33" xmlns="http://www.w3.org/2000/svg">
    <path
        d="M12.2717 17.5021V31H0V20.3438C0 14.5743 0.678227 10.3979 2.03468 7.81458C3.81503 4.37014 6.63391 1.76528 10.4913 0L13.289 4.52083C10.9576 5.51111 9.24085 6.99653 8.13873 8.97708C7.03661 10.9146 6.42197 13.7563 6.2948 17.5021H12.2717ZM31.9827 17.5021V31H19.711V20.3438C19.711 14.5743 20.3892 10.3979 21.7457 7.81458C23.526 4.37014 26.3449 1.76528 30.2023 0L33 4.52083C30.6686 5.51111 28.9518 6.99653 27.8497 8.97708C26.7476 10.9146 26.1329 13.7563 26.0058 17.5021H31.9827Z"
        fill="white" />
</svg>
