<svg width="25" height="24" viewBox="0 0 25 24" fill="none" xmlns="http://www.w3.org/2000/svg">
<path d="M8.71402 13.51L15.544 17.49M15.534 6.51L8.71402 10.49M21.124 5C21.124 6.65685 19.7809 8 18.124 8C16.4672 8 15.124 6.65685 15.124 5C15.124 3.34315 16.4672 2 18.124 2C19.7809 2 21.124 3.34315 21.124 5ZM9.12402 12C9.12402 13.6569 7.78088 15 6.12402 15C4.46717 15 3.12402 13.6569 3.12402 12C3.12402 10.3431 4.46717 9 6.12402 9C7.78088 9 9.12402 10.3431 9.12402 12ZM21.124 19C21.124 20.6569 19.7809 22 18.124 22C16.4672 22 15.124 20.6569 15.124 19C15.124 17.3431 16.4672 16 18.124 16C19.7809 16 21.124 17.3431 21.124 19Z" stroke="white" stroke-width="2" stroke-linecap="round" stroke-linejoin="round"/>
</svg>
