<svg fill="none" height="24" viewBox="0 0 24 24" width="24" xmlns="http://www.w3.org/2000/svg">
    <g clip-path="url(#clip0)">
        <path
            d="M22.0001 10V20H24.0001V10H22.0001ZM22.0001 20C22.0001 20.5523 21.5523 21 21.0001 21V23C22.6569 23 24.0001 21.6569 24.0001 20H22.0001ZM19.0001 6V8H21.0001V6H19.0001ZM15.0001 5H18.0001V3H15.0001V5ZM21.0001 6C21.0001 4.34315 19.6569 3 18.0001 3V5C18.5523 5 19.0001 5.44772 19.0001 6H21.0001ZM2.99872 5.00001C4.77902 5 7.21956 5 8.00006 5V3C7.21955 3 4.77902 3 2.99872 3.00001L2.99872 5.00001ZM21.0001 21H4.00002V23H21.0001V21ZM0 6C1.49012e-06 6.57055 1.97291e-05 7.07057 3.76105e-05 7.42795C4.65512e-05 7.60664 5.53727e-05 7.74967 6.19888e-05 7.84803C6.52671e-05 7.89721 6.80089e-05 7.93522 6.99162e-05 7.96094C7.09295e-05 7.9738 7.16448e-05 7.98358 7.21812e-05 7.99015C7.24196e-05 7.99344 7.25985e-05 7.99592 7.27773e-05 7.99758C7.28369e-05 7.99841 7.28965e-05 7.99904 7.28965e-05 7.99945C7.28965e-05 7.99966 7.29561e-05 7.99982 7.29561e-05 7.99992C7.29561e-05 7.99998 7.29561e-05 8.00002 7.29561e-05 8.00004C7.29561e-05 8.00006 7.29561e-05 8.00006 7.29561e-05 8.00007C7.29561e-05 8.00008 7.29561e-05 8.00008 1.00007 8C2.00007 7.99992 2.00007 7.99992 2.00007 7.99991C2.00007 7.9999 2.00007 7.99989 2.00007 7.99988C2.00007 7.99985 2.00007 7.99981 2.00007 7.99976C2.00007 7.99966 2.00007 7.9995 2.00007 7.99929C2.00007 7.99888 2.00007 7.99825 2.00007 7.99742C2.00007 7.99576 2.00007 7.99328 2.00007 7.99C2.00007 7.98343 2.00007 7.97365 2.00007 7.96079C2.00007 7.93508 2.00007 7.89707 2.00006 7.8479C2.00006 7.74955 2.00005 7.60653 2.00004 7.42785C2.00002 7.07049 2 6.57051 2 6L0 6ZM21.0001 7H1.00007V9H21.0001V7ZM2.00002 19L2.00007 8.00001L7.29561e-05 7.99999L1.56164e-05 19L2.00002 19ZM4.00002 21C2.89544 21 2.00001 20.1046 2.00002 19L1.56164e-05 19C4.11272e-06 21.2091 1.79087 23 4.00002 23V21ZM2.99872 3.00001C1.34104 3.00001 0 4.34398 0 6H2C2 5.44689 2.44727 5.00001 2.99872 5.00001L2.99872 3.00001ZM24.0001 10C24.0001 8.34315 22.6569 7 21.0001 7V9C21.5523 9 22.0001 9.44772 22.0001 10H24.0001Z"
            fill="white" />
        <path d="M18 14C18 12.8954 18.8954 12 20 12H23V18H20C18.8954 18 18 17.1046 18 16V14Z"
            stroke="white" stroke-width="2" />
        <path
            d="M8.5999 8C8.29704 7.77876 8.02753 7.5167 7.8 7.22222C7.29778 6.57224 7 5.76442 7 4.88889C7 2.74111 8.79086 1 11 1C13.2091 1 15 2.74111 15 4.88889C15 6.16102 14.3717 7.29049 13.4004 8"
            stroke="white" stroke-width="2" />
    </g>
    <defs>
        <clipPath id="clip0">
            <rect fill="white" height="24" width="24" />
        </clipPath>
    </defs>
</svg>
