<svg width="334" height="120" viewBox="0 0 334 120" fill="none" xmlns="http://www.w3.org/2000/svg">
<g opacity="0.3">
<path opacity="0.2" fill-rule="evenodd" clip-rule="evenodd" d="M167.92 172.72C140.586 145.688 123.84 109.34 123.84 69.3596C123.84 29.3799 140.586 -6.96807 167.92 -34C195.254 -6.96725 212 29.3807 212 69.3596C212 109.34 195.253 145.688 167.92 172.72Z" fill="white"/>
<path opacity="0.2" fill-rule="evenodd" clip-rule="evenodd" d="M167.163 172.72C147.875 139.628 141.148 100.295 151.436 61.7852C161.723 23.2744 187.156 -7.41526 220.356 -26.3999C239.644 6.69158 246.371 46.0252 236.084 84.5359C225.796 123.045 200.363 153.735 167.163 172.72Z" fill="white"/>
<path opacity="0.2" fill-rule="evenodd" clip-rule="evenodd" d="M167.298 172.72C157.174 135.575 160.838 95.6512 180.774 60.9623C200.71 26.2742 233.297 3.12456 270.382 -6.64014C280.506 30.504 276.842 70.4285 256.906 105.117C236.969 139.805 204.381 162.955 167.298 172.72Z" fill="white"/>
<path opacity="0.2" fill-rule="evenodd" clip-rule="evenodd" d="M167.922 172.717C167.713 134.346 181.551 96.8702 209.772 68.6507C237.991 40.4303 275.467 26.5923 313.838 26.8022C314.047 65.1732 300.209 102.649 271.989 130.868C243.769 159.089 206.293 172.927 167.922 172.717Z" fill="white"/>
<path opacity="0.2" fill-rule="evenodd" clip-rule="evenodd" d="M167.92 173.342C177.602 136.257 200.555 103.671 234.949 83.7341C269.344 63.7973 308.931 60.134 345.76 70.258C336.079 107.342 313.125 139.928 278.73 159.866C244.335 179.802 204.75 183.466 167.92 173.342Z" fill="white"/>
<path opacity="0.2" fill-rule="evenodd" clip-rule="evenodd" d="M167.92 173.146C186.905 139.409 217.595 113.567 256.105 103.114C294.615 92.6606 333.948 99.495 367.04 119.095C348.055 152.83 317.365 178.672 278.854 189.126C240.345 199.58 201.011 192.745 167.92 173.146Z" fill="white"/>
<path opacity="0.2" fill-rule="evenodd" clip-rule="evenodd" d="M167.156 172.72C133.956 153.735 108.524 123.044 98.2362 84.5354C87.9488 46.0248 94.6748 6.69227 113.963 -26.3999C147.164 -7.41534 172.596 23.2751 182.884 61.7848C193.171 100.295 186.444 139.629 167.156 172.72Z" fill="white"/>
<path opacity="0.2" fill-rule="evenodd" clip-rule="evenodd" d="M167.022 172.72C129.938 162.955 97.3506 139.805 77.4145 105.117C57.4775 70.4285 53.8142 30.504 63.9383 -6.64014C101.022 3.12456 133.61 26.2742 153.546 60.9623C173.482 95.6512 177.146 135.576 167.022 172.72Z" fill="white"/>
<path opacity="0.2" fill-rule="evenodd" clip-rule="evenodd" d="M167.918 172.717C129.147 172.927 91.2815 159.089 62.7674 130.868C34.2532 102.649 20.2711 65.1724 20.4823 26.8021C59.2529 26.5931 97.1184 40.4311 125.633 68.6506C154.147 96.871 168.129 134.346 167.918 172.717Z" fill="white"/>
<path opacity="0.2" fill-rule="evenodd" clip-rule="evenodd" d="M167.92 173.342C130.775 183.466 90.8509 179.802 56.162 159.866C21.474 139.93 -1.67573 107.342 -11.4404 70.2578C25.7037 60.1338 65.6282 63.798 100.317 83.7339C135.006 103.67 158.155 136.258 167.92 173.342Z" fill="white"/>
<path opacity="0.2" fill-rule="evenodd" clip-rule="evenodd" d="M167.92 173.146C134.575 192.745 94.9419 199.58 56.138 189.127C17.3342 178.673 -13.5907 152.831 -32.7202 119.095C0.624706 99.4957 40.2577 92.6604 79.0624 103.114C117.865 113.569 148.789 139.411 167.92 173.146Z" fill="white"/>
</g>
</svg>
