<svg fill="none" height="103" viewBox="0 0 157 103" width="157" xmlns="http://www.w3.org/2000/svg">
    <g opacity="0.2">
        <path clip-rule="evenodd" d="M-15.7322 0.282153C-5.84916 0.136527 2.43274 3.31368 10.1376 7.69185C25.1449 15.5721 42.5754 27.7765 59.9331 26.0619C71.627 24.9063 77.373 16.7731 88.1665 13.2272C109.079 6.35851 118.018 26.0016 138.97 31.129C147.931 33.322 158.118 32.8531 172.261 28.4749C172.261 54.0095 172.261 79.5442 172.261 105.078C109.555 105.078 46.8487 105.078 -15.8574 105.078C-15.8159 70.1466 -15.7736 35.2152 -15.7322 0.282153Z" fill="white"
            fill-rule="evenodd"
            opacity="0.3" />
        <path clip-rule="evenodd" d="M-15.7918 50.1698C1.45074 45.5669 19.5773 46.7116 36.8199 50.8251C43.7199 52.4716 50.6465 54.7625 57.6052 57.8919C75.8649 64.1217 102.891 79.8454 121.23 71.1689C127.994 67.9683 135.238 60.6087 141.9 59.9526C147.595 59.392 156.248 65.6461 163.157 67.3842C165.976 68.0928 168.98 68.5257 172.26 68.5508C172.26 80.7262 172.26 92.9024 172.26 105.079C109.554 105.079 46.8477 105.079 -15.8584 105.079C-15.8357 86.776 -15.8138 68.4725 -15.7918 50.1698Z" fill="white"
            fill-rule="evenodd"
            opacity="0.3" />
        <path clip-rule="evenodd" d="M128.149 74.0532C133.246 85.8889 149.52 83.7859 172.261 98.0706C172.261 100.406 172.261 102.742 172.261 105.079C139.108 105.079 105.956 105.079 72.8037 105.079C75.7272 100.363 80.9267 96.7036 87.7233 93.8764C99.8909 88.8155 116.353 85.174 128.149 74.0532Z" fill="white"
            fill-rule="evenodd"
            opacity="0.3" />
        <path clip-rule="evenodd" d="M143.283 105.079H72.8027C75.7262 100.363 80.9257 96.7036 87.7224 93.8764C99.8907 88.8147 116.353 85.174 128.148 74.0532C125.621 78.6592 128.001 82.3547 130.078 86.0486C134.68 94.2365 137.141 89.2007 140.102 92.9259C141.765 95.0187 142.839 102.347 143.283 105.079Z" fill="white"
            fill-rule="evenodd"
            opacity="0.3" />
        <path clip-rule="evenodd" d="M-15.8584 105.079C-4.992 90.0964 2.90548 81.4286 21.4493 74.7673C29.458 71.8908 38.4578 61.4167 41.2936 58.0235C41.6522 57.5937 42.1423 56.6275 42.7389 56.7371C45.5081 57.2484 60.2876 76.4389 65.0549 80.8915C76.8256 91.8847 85.845 98.019 88.7019 105.079C88.7019 105.079 -15.932 105.18 -15.8584 105.079Z" fill="white"
            fill-rule="evenodd"
            opacity="0.3" />
        <path clip-rule="evenodd" d="M42.7393 56.7373C45.5085 57.2486 60.288 76.4391 65.0553 80.8916C76.8259 91.8848 85.8453 98.0192 88.7023 105.079H72.8032C64.7304 85.3802 51.7931 67.7383 42.7393 56.7373Z" fill="white"
            fill-rule="evenodd"
            opacity="0.3" />
    </g>
</svg>
