<svg width="119" height="18" viewBox="0 0 119 18" fill="none" 
  xmlns="http://www.w3.org/2000/svg">
  <path d="M4.37402 11.417V7.88379H0.867188V6.40723H4.37402V2.90039H5.86816V6.40723H9.375V7.88379H5.86816V11.417H4.37402ZM21.7676 13.5V0.615234H23.5166L30.2842 10.7314V0.615234H31.9189V13.5H30.1699L23.4023 3.375V13.5H21.7676ZM40.9805 10.4941L42.6152 10.6963C42.3574 11.6514 41.8799 12.3926 41.1826 12.9199C40.4854 13.4473 39.5947 13.7109 38.5107 13.7109C37.1455 13.7109 36.0615 13.292 35.2588 12.4541C34.4619 11.6104 34.0635 10.4297 34.0635 8.91211C34.0635 7.3418 34.4678 6.12305 35.2764 5.25586C36.085 4.38867 37.1338 3.95508 38.4229 3.95508C39.6709 3.95508 40.6904 4.37988 41.4814 5.22949C42.2725 6.0791 42.668 7.27441 42.668 8.81543C42.668 8.90918 42.665 9.0498 42.6592 9.2373H35.6982C35.7568 10.2627 36.0469 11.0479 36.5684 11.5928C37.0898 12.1377 37.7402 12.4102 38.5195 12.4102C39.0996 12.4102 39.5947 12.2578 40.0049 11.9531C40.415 11.6484 40.7402 11.1621 40.9805 10.4941ZM35.7861 7.93652H40.998C40.9277 7.15137 40.7285 6.5625 40.4004 6.16992C39.8965 5.56055 39.2432 5.25586 38.4404 5.25586C37.7139 5.25586 37.1016 5.49902 36.6035 5.98535C36.1113 6.47168 35.8389 7.12207 35.7861 7.93652ZM46.333 13.5L43.4766 4.16602H45.1113L46.5967 9.55371L47.1504 11.5576C47.1738 11.458 47.335 10.8164 47.6338 9.63281L49.1191 4.16602H50.7451L52.1426 9.58008L52.6084 11.3643L53.1445 9.5625L54.7441 4.16602H56.2822L53.3643 13.5H51.7207L50.2354 7.91016L49.875 6.31934L47.9854 13.5H46.333ZM62.8301 13.5V0.615234H67.6904C68.5459 0.615234 69.1992 0.65625 69.6504 0.738281C70.2832 0.84375 70.8135 1.0459 71.2412 1.34473C71.6689 1.6377 72.0117 2.05078 72.2695 2.58398C72.5332 3.11719 72.665 3.70312 72.665 4.3418C72.665 5.4375 72.3164 6.36621 71.6191 7.12793C70.9219 7.88379 69.6621 8.26172 67.8398 8.26172H64.5352V13.5H62.8301ZM64.5352 6.74121H67.8662C68.9678 6.74121 69.75 6.53613 70.2129 6.12598C70.6758 5.71582 70.9072 5.13867 70.9072 4.39453C70.9072 3.85547 70.7695 3.39551 70.4941 3.01465C70.2246 2.62793 69.8672 2.37305 69.4219 2.25C69.1348 2.17383 68.6045 2.13574 67.8311 2.13574H64.5352V6.74121ZM74.5986 13.5V0.615234H76.1807V13.5H74.5986ZM84.7324 12.3486C84.1465 12.8467 83.5811 13.1982 83.0361 13.4033C82.4971 13.6084 81.917 13.7109 81.2959 13.7109C80.2705 13.7109 79.4824 13.4619 78.9316 12.9639C78.3809 12.46 78.1055 11.8184 78.1055 11.0391C78.1055 10.582 78.208 10.166 78.4131 9.79102C78.624 9.41016 78.8965 9.10547 79.2305 8.87695C79.5703 8.64844 79.9512 8.47559 80.373 8.3584C80.6836 8.27637 81.1523 8.19727 81.7793 8.12109C83.0566 7.96875 83.9971 7.78711 84.6006 7.57617C84.6064 7.35938 84.6094 7.22168 84.6094 7.16309C84.6094 6.51855 84.46 6.06445 84.1611 5.80078C83.7568 5.44336 83.1562 5.26465 82.3594 5.26465C81.6152 5.26465 81.0645 5.39648 80.707 5.66016C80.3555 5.91797 80.0947 6.37793 79.9248 7.04004L78.3779 6.8291C78.5186 6.16699 78.75 5.63379 79.0723 5.22949C79.3945 4.81934 79.8604 4.50586 80.4697 4.28906C81.0791 4.06641 81.7852 3.95508 82.5879 3.95508C83.3848 3.95508 84.0322 4.04883 84.5303 4.23633C85.0283 4.42383 85.3945 4.66113 85.6289 4.94824C85.8633 5.22949 86.0273 5.58691 86.1211 6.02051C86.1738 6.29004 86.2002 6.77637 86.2002 7.47949V9.58887C86.2002 11.0596 86.2324 11.9912 86.2969 12.3838C86.3672 12.7705 86.502 13.1426 86.7012 13.5H85.0488C84.8848 13.1719 84.7793 12.7881 84.7324 12.3486ZM84.6006 8.81543C84.0264 9.0498 83.165 9.24902 82.0166 9.41309C81.3662 9.50684 80.9062 9.6123 80.6367 9.72949C80.3672 9.84668 80.1592 10.0195 80.0127 10.248C79.8662 10.4707 79.793 10.7197 79.793 10.9951C79.793 11.417 79.9512 11.7686 80.2676 12.0498C80.5898 12.3311 81.0586 12.4717 81.6738 12.4717C82.2832 12.4717 82.8252 12.3398 83.2998 12.0762C83.7744 11.8066 84.123 11.4404 84.3457 10.9775C84.5156 10.6201 84.6006 10.0928 84.6006 9.39551V8.81543ZM88.5908 17.0947L88.415 15.6094C88.7607 15.7031 89.0625 15.75 89.3203 15.75C89.6719 15.75 89.9531 15.6914 90.1641 15.5742C90.375 15.457 90.5479 15.293 90.6826 15.082C90.7822 14.9238 90.9434 14.5312 91.166 13.9043C91.1953 13.8164 91.2422 13.6875 91.3066 13.5176L87.7646 4.16602H89.4697L91.4121 9.57129C91.6641 10.2568 91.8896 10.9775 92.0889 11.7334C92.2705 11.0068 92.4873 10.2979 92.7393 9.60645L94.7344 4.16602H96.3164L92.7656 13.6582C92.3848 14.6836 92.0889 15.3896 91.8779 15.7764C91.5967 16.2979 91.2744 16.6787 90.9111 16.9189C90.5479 17.165 90.1143 17.2881 89.6104 17.2881C89.3057 17.2881 88.9658 17.2236 88.5908 17.0947ZM97.626 13.5V0.615234H99.208V13.5H97.626ZM101.678 2.43457V0.615234H103.26V2.43457H101.678ZM101.678 13.5V4.16602H103.26V13.5H101.678ZM105.044 10.7139L106.608 10.4678C106.696 11.0947 106.939 11.5752 107.338 11.9092C107.742 12.2432 108.305 12.4102 109.025 12.4102C109.752 12.4102 110.291 12.2637 110.643 11.9707C110.994 11.6719 111.17 11.3232 111.17 10.9248C111.17 10.5674 111.015 10.2861 110.704 10.0811C110.487 9.94043 109.948 9.76172 109.087 9.54492C107.927 9.25195 107.121 9 106.67 8.78906C106.225 8.57227 105.885 8.27637 105.65 7.90137C105.422 7.52051 105.308 7.10156 105.308 6.64453C105.308 6.22852 105.401 5.84473 105.589 5.49316C105.782 5.13574 106.043 4.83984 106.371 4.60547C106.617 4.42383 106.951 4.27148 107.373 4.14844C107.801 4.01953 108.258 3.95508 108.744 3.95508C109.477 3.95508 110.118 4.06055 110.669 4.27148C111.226 4.48242 111.636 4.76953 111.899 5.13281C112.163 5.49023 112.345 5.9707 112.444 6.57422L110.897 6.78516C110.827 6.30469 110.622 5.92969 110.282 5.66016C109.948 5.39062 109.474 5.25586 108.858 5.25586C108.132 5.25586 107.613 5.37598 107.303 5.61621C106.992 5.85645 106.837 6.1377 106.837 6.45996C106.837 6.66504 106.901 6.84961 107.03 7.01367C107.159 7.18359 107.361 7.32422 107.637 7.43555C107.795 7.49414 108.261 7.62891 109.034 7.83984C110.153 8.13867 110.933 8.38477 111.372 8.57812C111.817 8.76562 112.166 9.04102 112.418 9.4043C112.67 9.76758 112.796 10.2188 112.796 10.7578C112.796 11.2852 112.641 11.7832 112.33 12.252C112.025 12.7148 111.583 13.0752 111.003 13.333C110.423 13.585 109.767 13.7109 109.034 13.7109C107.821 13.7109 106.896 13.459 106.257 12.9551C105.624 12.4512 105.22 11.7041 105.044 10.7139ZM118.131 12.085L118.359 13.4824C117.914 13.5762 117.516 13.623 117.164 13.623C116.59 13.623 116.145 13.5322 115.828 13.3506C115.512 13.1689 115.289 12.9316 115.16 12.6387C115.031 12.3398 114.967 11.7158 114.967 10.7666V5.39648H113.807V4.16602H114.967V1.85449L116.54 0.905273V4.16602H118.131V5.39648H116.54V10.8545C116.54 11.3057 116.566 11.5957 116.619 11.7246C116.678 11.8535 116.769 11.9561 116.892 12.0322C117.021 12.1084 117.202 12.1465 117.437 12.1465C117.612 12.1465 117.844 12.126 118.131 12.085Z" fill="url(#paint0_linear)"/>
  <!-- <defs> -->
  <!-- <linearGradient id="paint0_linear" x1="59" y1="-3.5" x2="59" y2="17.5" gradientUnits="userSpaceOnUse">
      <stop stop-color="#666CCC"/>
      <stop offset="1" stop-color="#66CCCC"/>
    </linearGradient> -->
  <!-- </defs> -->
</svg>
